# xmcd
#
# Track frame offsets: 
#        150
#        9430
#        26592
#        43740
#        66382
#        82247
#        102347
#        107065
#        129300
#        140952
#        157447
#        193315
#        214800
#        236982
#        253647
#        287695
#
# Disc length: 3959 seconds
#
# Revision: 2
# Processed by: cddbd v1.5.2PL0 Copyright (c) Steve Scherf et al.
# Submitted via: ExactAudioCopy v0.99pb4
#
DISCID=000f7510
DTITLE=Patricia Kaas - Carnets de Scene
DYEAR=1991
DGENRE=Blues
TTITLE0=Generique - (Theme Montmajour)
TTITLE1=Les Mannequins D'Osier
TTITLE2=Venus Des Abribus
TTITLE3=Mon Mec a Toi
TTITLE4=Coeurs Brises
TTITLE5=L'heure Du Jazz
TTITLE6=Lili Marlene
TTITLE7=D'Allemagne
TTITLE8=Summertime
TTITLE9=Kennedy Rose
TTITLE10=Mademoiselle Chante Blues
TTITLE11=Bessie
TTITLE12=Les Hommes Qui Passent
TTITLE13=Une Derniere Semaine a New-York
TTITLE14=Quand Jimmy Dit
TTITLE15=Un Dernier Blues
EXTD=
EXTT0=
EXTT1=
EXTT2=
EXTT3=
EXTT4=
EXTT5=
EXTT6=
EXTT7=
EXTT8=
EXTT9=
EXTT10=
EXTT11=
EXTT12=
EXTT13=
EXTT14=
EXTT15=
PLAYORDER=
